<svg xmlns="http://www.w3.org/2000/svg" viewBox="-20 -20 391 341">
  <g transform="translate(2589.219,82.996188)">
    <path
       d="M -2338.719,-32.496188 L -2338.719,-82.496188 L -2288.719,-82.496188 L -2288.719,-32.496188 L -2238.719,-32.496188 L -2238.719,17.503812 L -2288.719,17.503812 L -2288.719,67.503812 L -2238.719,67.503812 L -2238.719,117.50381 L -2288.719,117.50381 L -2288.719,67.503812 L -2338.719,67.503812 L -2338.719,117.50381 L -2388.719,117.50381 L -2388.719,167.50381 L -2338.719,167.50381 L -2338.719,217.50381 L -2388.719,217.50381 L -2388.719,167.50381 L -2438.719,167.50381 L -2438.719,117.50381 L -2388.719,117.50381 L -2388.719,67.503812 L -2438.719,67.503812 L -2438.719,117.50381 L -2488.719,117.50381 L -2488.719,67.503812 L -2538.719,67.503812 L -2538.719,117.50381 L -2588.719,117.50381 L -2588.719,167.50381 L -2538.719,167.50381"
       style="fill:none;stroke:#ffffff;stroke-width:8px;stroke-linecap:round;stroke-linejoin:round" />
  </g>
</svg>
