<svg xmlns="http://www.w3.org/2000/svg" viewBox="0 0 24 24"><path d="M2,5.27L4.28,3L21,19.72L18.73,22L15.65,18.92C14.5,19.3 13.28,19.5 12,19.5C7,19.5 2.73,16.39 1,12C1.8,9.97 3.09,8.24 4.74,6.86L2,5.27M12,7A5,5 0 0,1 17,12C17,12.64 16.88,13.26 16.65,13.82L13.68,10.85C13.12,10.31 12.37,10 11.54,10C11.38,10 11.22,10.02 11.07,10.05L8.82,7.8C9.68,7.29 10.8,7 12,7M12,4.5C17,4.5 21.27,7.61 23,12C22.5,13.27 21.74,14.41 20.8,15.37L18.7,13.27C18.89,12.86 19,12.44 19,12A7,7 0 0,0 12,5C11.56,5 11.14,5.04 10.73,5.13L9.06,3.46C9.99,3.55 10.94,4.5 12,4.5M3.27,4L20,20.73L18.73,22L2,5.27L3.27,4Z" /></svg>
