<svg xmlns="http://www.w3.org/2000/svg" style="width:293.66857142857145;height:293.66857142857145" viewBox="0 0 293.66857142857145 293.66857142857145">
  <path d="M 18.834285714285716 24.86857142857143 L 18.834285714285716 24.86857142857143 L 49.37142857142857 24.86857142857143 L 49.37142857142857 49.37142857142857 L 12.800000000000002 49.37142857142857 L 12.800000000000002 91.97714285714285 L 12.800000000000002 134.58285714285714 L 61.44 134.58285714285714 L 61.44 98.01142857142857 L 85.94285714285714 98.01142857142857 L 85.94285714285714 134.58285714285714 L 134.58285714285714 134.58285714285714 L 134.58285714285714 91.97714285714285 L 134.58285714285714 49.37142857142857 L 98.01142857142857 49.37142857142857 L 98.01142857142857 24.86857142857143 L 128.54857142857142 24.86857142857143 L 159.0857142857143 24.86857142857143 L 159.0857142857143 61.44 L 207.72571428571428 61.44 L 207.72571428571428 24.86857142857143 L 238.26285714285714 24.86857142857143 L 268.8 24.86857142857143 L 268.8 49.37142857142857 L 232.22857142857143 49.37142857142857 L 232.22857142857143 98.01142857142857 L 268.8 98.01142857142857 L 268.8 122.5142857142857 L 238.26285714285714 122.5142857142857 L 207.72571428571428 122.5142857142857 L 207.72571428571428 85.94285714285714 L 159.0857142857143 85.94285714285714 L 159.0857142857143 128.54857142857142 L 159.0857142857143 165.12 L 159.0857142857143 207.72571428571428 L 207.72571428571428 207.72571428571428 L 207.72571428571428 171.15428571428572 L 238.26285714285714 171.15428571428572 L 268.8 171.15428571428572 L 268.8 195.65714285714284 L 232.22857142857143 195.65714285714284 L 232.22857142857143 244.29714285714286 L 268.8 244.29714285714286 L 268.8 268.8 L 238.26285714285714 268.8 L 207.72571428571428 268.8 L 207.72571428571428 232.22857142857143 L 159.0857142857143 232.22857142857143 L 159.0857142857143 268.8 L 128.54857142857142 268.8 L 98.01142857142857 268.8 L 98.01142857142857 244.29714285714286 L 134.58285714285714 244.29714285714286 L 134.58285714285714 201.69142857142856 L 134.58285714285714 159.0857142857143 L 85.94285714285714 159.0857142857143 L 85.94285714285714 195.65714285714284 L 61.44 195.65714285714284 L 61.44 159.0857142857143 L 12.800000000000002 159.0857142857143 L 12.800000000000002 201.69142857142856 L 12.800000000000002 244.29714285714286 L 49.37142857142857 244.29714285714286 L 49.37142857142857 268.8 L 18.834285714285716 268.8 L 18.834285714285716 280.86857142857144 L 61.44 280.86857142857144 L 61.44 232.22857142857143 L 24.86857142857143 232.22857142857143 L 24.86857142857143 201.69142857142856 L 24.86857142857143 171.15428571428572 L 49.37142857142857 171.15428571428572 L 49.37142857142857 207.72571428571428 L 98.01142857142857 207.72571428571428 L 98.01142857142857 171.15428571428572 L 122.5142857142857 171.15428571428572 L 122.5142857142857 201.69142857142856 L 122.5142857142857 232.22857142857143 L 85.94285714285714 232.22857142857143 L 85.94285714285714 280.86857142857144 L 128.54857142857142 280.86857142857144 L 171.15428571428572 280.86857142857144 L 171.15428571428572 244.29714285714286 L 195.65714285714284 244.29714285714286 L 195.65714285714284 280.86857142857144 L 238.26285714285714 280.86857142857144 L 280.86857142857144 280.86857142857144 L 280.86857142857144 232.22857142857143 L 244.29714285714286 232.22857142857143 L 244.29714285714286 207.72571428571428 L 280.86857142857144 207.72571428571428 L 280.86857142857144 159.0857142857143 L 238.26285714285714 159.0857142857143 L 195.65714285714284 159.0857142857143 L 195.65714285714284 195.65714285714284 L 171.15428571428572 195.65714285714284 L 171.15428571428572 165.12 L 171.15428571428572 128.54857142857142 L 171.15428571428572 98.01142857142857 L 195.65714285714284 98.01142857142857 L 195.65714285714284 134.58285714285714 L 238.26285714285714 134.58285714285714 L 280.86857142857144 134.58285714285714 L 280.86857142857144 85.94285714285714 L 244.29714285714286 85.94285714285714 L 244.29714285714286 61.44 L 280.86857142857144 61.44 L 280.86857142857144 12.800000000000002 L 238.26285714285714 12.800000000000002 L 195.65714285714284 12.800000000000002 L 195.65714285714284 49.37142857142857 L 171.15428571428572 49.37142857142857 L 171.15428571428572 12.800000000000002 L 128.54857142857142 12.800000000000002 L 85.94285714285714 12.800000000000002 L 85.94285714285714 61.44 L 122.5142857142857 61.44 L 122.5142857142857 91.97714285714285 L 122.5142857142857 122.5142857142857 L 98.01142857142857 122.5142857142857 L 98.01142857142857 85.94285714285714 L 49.37142857142857 85.94285714285714 L 49.37142857142857 122.5142857142857 L 24.86857142857143 122.5142857142857 L 24.86857142857143 91.97714285714285 L 24.86857142857143 61.44 L 61.44 61.44 L 61.44 12.800000000000002 L 18.834285714285716 12.800000000000002 Z" stroke="white" stroke-width="4" fill="none"/>
</svg>