<?xml version="1.0" standalone="no"?>
<svg xmlns:xlink="http://www.w3.org/1999/xlink" fill="#000000" width="128" height="128" viewBox="0 0 14 14" role="img" focusable="false" aria-hidden="true" xmlns="http://www.w3.org/2000/svg"><path d="m 4.9402075,12.713574 c -0.038997,-0.061 -1.3178084,-2.1821 -1.4848967,-2.463 -0.057996,-0.098 -0.1057927,-0.1876 -0.1057927,-0.1996 0,-0.012 0.045997,-0.016 0.1029929,-0.01 0.056996,0.01 0.4177709,0.039 0.8024441,0.071 0.488566,0.041 0.7151503,0.069 0.7516477,0.093 0.028998,0.019 0.2868801,0.2284 0.5735601,0.4647 0.2867801,0.2363 0.6877522,0.5665 0.891038,0.7339 l 0.3696743,0.3043 -0.2120852,0.1252 c -0.6630539,0.3914 -1.6116879,0.9338 -1.6332864,0.9338 -0.010999,0 -0.035998,-0.025 -0.054996,-0.055 z m 2.8707002,-1.0232 c 0,-0.01 0.2083855,-0.3146 0.4630678,-0.6785 l 0.4629678,-0.6614 1.1091228,-0.4156998 c 0.6100579,-0.2286 1.1219219,-0.4157 1.1375209,-0.4157 0.021,0 0.027,0.2623 0.022,1.0608998 l -0.01,1.0607 -0.497066,0.015 c -0.9503342,0.029 -2.691413,0.051 -2.691413,0.035 z m -1.7113809,-0.9847 c -0.2789806,-0.2282 -0.6626539,-0.5417 -0.8527407,-0.6965 C 5.0567993,9.8542742 4.9095096,9.7203742 4.9195089,9.7115742 c 0.01,-0.01 0.258182,-0.078 0.5515616,-0.1546 l 0.5334629,-0.1385 0.7395485,0.2666 c 0.8805388,0.3174998 0.8243427,0.296 0.8243427,0.3159998 0,0.02 -0.9189361,1.1036 -0.9437343,1.1129 -0.01,0 -0.2461829,-0.1801 -0.5251635,-0.4083 z m 2.1963472,-0.5268 c 0,-0.01 0.036997,-0.1494 0.082994,-0.3089998 0.045997,-0.1596 0.1127922,-0.4025 0.1492896,-0.5399 l 0.065995,-0.2495 0.6318561,-0.5324 c 0.3475758,-0.2928 0.6390555,-0.5323 0.6476549,-0.5323 0.016999,0 0.081994,0.1719 0.3411764,0.9053 0.09299,0.2645 0.166388,0.4836 0.161989,0.4869 0,0 -0.171688,0.067 -0.371775,0.1423 -0.4810661,0.1804 -1.5037949,0.5669998 -1.6184869,0.6117998 -0.049997,0.02 -0.090994,0.027 -0.090994,0.017 z M 2.6458671,9.0989742 c -0.099993,-0.058 -0.5087646,-0.2939 -0.9088368,-0.5249 -0.4000721,-0.231 -0.7314491,-0.4234 -0.7364487,-0.4275 -0.009999,0 0.1101923,-0.2235 0.2558822,-0.4873 1.020229,-1.848 1.278711,-2.3106 1.2910101,-2.3098 0.01,5e-4 0.1685883,0.3361 0.3576751,0.7457 l 0.3435761,0.7446 -0.094993,0.5699 c -0.051996,0.3134 -0.1158919,0.6897 -0.1413901,0.8364 -0.025998,0.1467 -0.071995,0.4223 -0.1025929,0.6123 -0.030998,0.1901 -0.061996,0.3455 -0.068995,0.3455 -0.01,0 -0.094993,-0.047 -0.1945864,-0.1049 z m 1.9644633,-0.1148 c -0.046997,-0.01 -0.3712742,-0.069 -0.7213498,-0.133 -0.5387625,-0.098 -0.6364557,-0.1226 -0.6364557,-0.1577 0,-0.023 0.047997,-0.3346 0.1072925,-0.693 0.058996,-0.3583 0.1370905,-0.8342 0.1734879,-1.0576 0.035998,-0.2234 0.072995,-0.4062 0.081994,-0.4062 0.01,0 0.1861871,0.1774 0.3945726,0.3943 0.2084855,0.2169 0.3850732,0.4004 0.3924727,0.4078 0.021998,0.022 0.3125782,1.6165 0.3000791,1.6459 0,0.01 -0.044997,0.01 -0.091994,-5e-4 z m 6.7468306,-0.5405 c -0.057,-0.122 -0.212085,-0.4543 -0.345476,-0.7384 l -0.242583,-0.5168 0.193987,-1.1747 c 0.106592,-0.6462 0.193886,-1.1801 0.193886,-1.1866 0,-0.01 0.01,-0.012 0.022,-0.012 0.016,0 1.552392,0.8754 1.817073,1.0352 0.024,0.015 -0.058,0.1824 -0.336676,0.6862 -0.202986,0.3668 -0.543362,0.9833 -0.756548,1.37 -0.213285,0.3867 -0.399972,0.7157 -0.414971,0.731 -0.02,0.021 -0.053,-0.029 -0.130191,-0.194 z m -1.071625,-1.0765 c -0.058,-0.063 -0.238083,-0.2516 -0.4012725,-0.4183 -0.2691813,-0.2751 -0.2979793,-0.3131 -0.3124783,-0.4122 -0.01,-0.06 -0.071995,-0.4227 -0.1406902,-0.8062 -0.068995,-0.3835 -0.1202916,-0.7018 -0.114592,-0.7074 0.010999,-0.011 1.430001,0.2464 1.4464,0.2628 0.01,0.01 -0.067,0.4809 -0.161489,1.056 -0.09499,0.5751 -0.171788,1.067 -0.171788,1.0931 0,0.072 -0.03,0.058 -0.14409,-0.068 z m -6.171971,-1.3942 c -0.01,-0.017 -0.087994,-0.2485 -0.1834873,-0.5153 -0.2552822,-0.7147 -0.2961794,-0.8379 -0.2828803,-0.8512 0.015999,-0.016 2.0622565,-0.7855 2.069356,-0.7784 0,0 -0.025998,0.12 -0.064995,0.2599 -0.038997,0.1399 -0.1050927,0.3841 -0.1475898,0.5427 -0.064996,0.2405 -0.089994,0.2987 -0.1509895,0.3515 -0.039997,0.035 -0.1176918,0.1022 -0.171688,0.1497 -0.2279842,0.2001 -1.0325282,0.8714 -1.0445273,0.8714 -0.01,0 -0.017999,-0.014 -0.022998,-0.03 z m 3.1396815,-1.6511 c -0.4067717,-0.1492 -0.7590472,-0.2792 -0.7829455,-0.2887 -0.036997,-0.015 -0.020999,-0.044 0.1179918,-0.2057 0.088994,-0.1036 0.3026789,-0.3547 0.4752669,-0.558 0.172688,-0.2034 0.3247774,-0.3698 0.3380765,-0.3698 0.012999,0 0.1244913,0.083 0.2470828,0.1838 0.1225915,0.101 0.503765,0.4137 0.8472411,0.695 0.3433761,0.2812 0.6201568,0.5155 0.6150572,0.5206 -0.01,0.01 -0.1277911,0.04 -0.2727811,0.079 -0.1448899,0.038 -0.3907728,0.1031 -0.546262,0.1444 -0.1554891,0.041 -0.28638,0.074 -0.2909797,0.073 0,0 -0.3409763,-0.124 -0.747748,-0.2732 z m -4.2432048,-0.8854 0,-1.0635 0.3576752,-0.015 c 0.1966863,-0.01 0.8322421,-0.021 1.4123017,-0.028 0.5801596,-0.01 1.1408206,-0.019 1.2459133,-0.026 0.2239844,-0.015 0.2221846,-0.028 0.035998,0.2404 -0.7005513,1.0063 -0.7815456,1.1112 -0.8935378,1.157 -0.186587,0.076 -2.1233523,0.7992 -2.141151,0.7992 -0.01,0 -0.016999,-0.4786 -0.016999,-1.0635 z m 6.7891277,0.4682 c -0.3266773,-0.031 -0.6286563,-0.057 -0.6708533,-0.058 -0.060996,0 -0.1424901,-0.056 -0.3879731,-0.2582 -0.171088,-0.141 -0.5921587,-0.4868 -0.9356349,-0.7684 -0.3434761,-0.2816 -0.6162571,-0.52 -0.6061578,-0.5298 0.030998,-0.03 1.8317726,-1.0653 1.8391721,-1.0571 0.015999,0.017 1.6343866,2.7137 1.6343866,2.7224 0,0.021 -0.28768,0 -0.8729396,-0.051 z"/></svg>