<svg xmlns="http://www.w3.org/2000/svg" width="702" height="702" viewBox="0 0 702 702" version="1.1"><path d="" stroke="none" fill="#08fc04" fill-rule="evenodd"/><path d="M 35.667 35.667 L 35 36.333 35 290.434 L 35 544.534 97.735 607.269 L 160.470 670.004 413.485 669.752 L 666.500 669.500 666.752 413.485 L 667.004 157.469 605.769 96.235 L 544.535 35 290.434 35 L 36.333 35 35.667 35.667 M 134.514 110.997 L 178.500 154.994 348.250 154.997 L 518 155 518 111 L 518 67 304.264 67 L 90.529 67 134.514 110.997 M 550 119.805 L 550 155 585.194 155 L 620.388 155 603.128 137.657 L 585.868 120.315 567.934 102.462 L 550 84.610 550 119.805 M 67 304.264 L 67 518 111 518 L 155 518 154.997 348.250 L 154.994 178.500 110.997 134.514 L 67 90.529 67 304.264 M 187 352.500 L 187 518 352.500 518 L 518 518 518 352.500 L 518 187 352.500 187 L 187 187 187 352.500 M 550.003 358.250 L 550.006 529.500 594.003 573.486 L 638 617.471 638 402.236 L 638 187 594 187 L 550 187 550.003 358.250 M 102.462 567.934 L 120.315 585.868 137.657 603.128 L 155 620.388 155 585.194 L 155 550 119.805 550 L 84.610 550 102.462 567.934 M 187 594 L 187 638 400.736 638 L 614.471 638 570.486 594.003 L 526.500 550.006 356.750 550.003 L 187 550 187 594" stroke="none" fill="#04fc04" fill-rule="evenodd"/></svg>