# humanoid_quad.obj
# created by TEC_TO_OBJ.F90.
 
g Group001
 
v -2.48000 14.0000 3.25000 1.00000
v -2.48000 9.01000 3.25000 1.00000
v 2.48000 9.01000 3.25000 1.00000
v 2.48000 14.0000 3.25000 1.00000
v -2.48000 14.0000 0.773000 1.00000
v -2.48000 9.01000 0.773000 1.00000
v 2.48000 14.0000 0.773000 1.00000
v 2.48000 9.01000 0.773000 1.00000
v -1.29000 17.4000 3.47000 1.00000
v -1.29000 15.0000 3.47000 1.00000
v 1.19000 15.0000 3.47000 1.00000
v 1.19000 17.4000 3.47000 1.00000
v -1.29000 17.4000 0.601000 1.00000
v -1.29000 15.0000 0.601000 1.00000
v 1.19000 17.4000 0.601000 1.00000
v 1.19000 15.0000 0.601000 1.00000
v -2.47000 8.01000 3.15000 1.00000
v -2.47000 3.05000 3.15000 1.00000
v -0.486000 3.05000 3.15000 1.00000
v -0.486000 8.01000 3.15000 1.00000
v -2.47000 8.01000 0.892000 1.00000
v -2.47000 3.05000 0.892000 1.00000
v -0.486000 8.01000 0.892000 1.00000
v -0.486000 3.05000 0.892000 1.00000
v -3.96000 14.0000 3.23000 1.00000
v -3.96000 9.01000 3.23000 1.00000
v -2.48000 9.01000 3.23000 1.00000
v -2.48000 14.0000 3.23000 1.00000
v -3.96000 14.0000 0.747000 1.00000
v -3.96000 9.01000 0.747000 1.00000
v -2.48000 14.0000 0.747000 1.00000
v -2.48000 9.01000 0.747000 1.00000
v 2.46000 14.0000 3.27000 1.00000
v 2.46000 9.01000 3.27000 1.00000
v 3.95000 9.01000 3.27000 1.00000
v 3.95000 14.0000 3.27000 1.00000
v 2.46000 14.0000 0.795000 1.00000
v 2.46000 9.01000 0.795000 1.00000
v 3.95000 14.0000 0.795000 1.00000
v 3.95000 9.01000 0.795000 1.00000
v -0.498000 15.0000 2.49000 1.00000
v -0.498000 14.0000 2.49000 1.00000
v 0.493000 14.0000 2.49000 1.00000
v 0.493000 15.0000 2.49000 1.00000
v -0.498000 15.0000 1.50000 1.00000
v -0.498000 14.0000 1.50000 1.00000
v 0.493000 15.0000 1.50000 1.00000
v 0.493000 14.0000 1.50000 1.00000
v -2.50000 9.01000 3.25000 1.00000
v -2.50000 8.01000 3.25000 1.00000
v 2.45000 8.01000 3.25000 1.00000
v 2.45000 9.01000 3.25000 1.00000
v -2.50000 9.01000 0.771000 1.00000
v -2.50000 8.01000 0.771000 1.00000
v 2.45000 9.01000 0.771000 1.00000
v 2.45000 8.01000 0.771000 1.00000
v 0.465000 8.01000 3.27000 1.00000
v 0.465000 3.05000 3.27000 1.00000
v 2.45000 3.05000 3.27000 1.00000
v 2.45000 8.01000 3.27000 1.00000
v 0.465000 8.01000 0.795000 1.00000
v 0.465000 3.05000 0.795000 1.00000
v 2.45000 8.01000 0.795000 1.00000
v 2.45000 3.05000 0.795000 1.00000
 
f 1 2 3 4
f 5 6 2 1
f 7 8 6 5
f 4 3 8 7
f 7 5 1 4
f 2 6 8 3
f 9 10 11 12
f 13 14 10 9
f 15 16 14 13
f 12 11 16 15
f 15 13 9 12
f 10 14 16 11
f 17 18 19 20
f 21 22 18 17
f 23 24 22 21
f 20 19 24 23
f 23 21 17 20
f 18 22 24 19
f 25 26 27 28
f 29 30 26 25
f 31 32 30 29
f 28 27 32 31
f 31 29 25 28
f 26 30 32 27
f 33 34 35 36
f 37 38 34 33
f 39 40 38 37
f 36 35 40 39
f 39 37 33 36
f 34 38 40 35
f 41 42 43 44
f 45 46 42 41
f 47 48 46 45
f 44 43 48 47
f 47 45 41 44
f 42 46 48 43
f 49 50 51 52
f 53 54 50 49
f 55 56 54 53
f 52 51 56 55
f 55 53 49 52
f 50 54 56 51
f 57 58 59 60
f 61 62 58 57
f 63 64 62 61
f 60 59 64 63
f 63 61 57 60
f 58 62 64 59
